<svg width="848" height="848" viewBox="0 0 848 848" fill="none" xmlns="http://www.w3.org/2000/svg">
<rect width="848" height="848" rx="120" fill="url(#paint0_linear_140_1975)"/>
<path d="M248 159.944C248 141.75 262.775 127 281 127H578C590.15 127 600 136.833 600 148.963V225.833C600 237.963 590.15 247.796 578 247.796H391C378.85 247.796 369 257.629 369 269.759V337.439C369 343.179 370.588 348.807 373.59 353.703C379.261 362.953 389.343 368.593 400.206 368.593H550.268C569.367 368.593 579.394 391.221 566.547 405.329L496.547 482.2C492.377 486.779 486.466 489.389 480.268 489.389H399.087C384.197 489.389 373.608 503.846 378.122 518.011L436.878 669.415C443.023 688.696 419.931 678.669 412.521 659.836C407.012 645.835 397.983 633.614 386.437 624.702C383.26 622.249 378.838 624.394 378.392 628.379L373.974 667.845C373.586 671.349 370.413 673.857 366.953 673.451C363.456 673.063 360.944 669.927 361.338 666.442L367.666 609.882C367.844 608.187 367.265 606.435 366.07 605.114C364.829 603.743 363.042 602.956 361.166 602.956H323.354C321.472 602.956 319.691 603.743 318.445 605.114C317.255 606.429 316.677 608.212 316.861 609.99L323.182 666.442C323.577 669.927 321.065 673.063 317.567 673.457C314.082 673.876 310.934 671.337 310.546 667.851L306.128 628.383C305.682 624.4 301.261 622.254 298.084 624.706C284.503 635.186 274.404 650.245 269.42 667.397C265.072 682.361 248 691.655 248 676.074V498.486C248 492.661 250.318 487.075 254.444 482.956L333.632 403.901C340.403 397.141 341.652 386.631 336.653 378.478C332.888 372.337 326.195 368.593 318.983 368.593H270C257.85 368.593 248 358.759 248 346.63V159.944Z" fill="url(#paint1_linear_140_1975)"/>
<path d="M248 705.223C248 701.222 251.19 697.949 255.195 697.838L436.666 692.805C441.779 692.663 446 696.762 446 701.868C446 711.882 437.868 720 427.837 720H262.802C254.627 720 248 713.384 248 705.223Z" fill="url(#paint2_linear_140_1975)"/>
<path d="M332.457 389.113C332.457 396.694 326.301 402.839 318.707 402.839C311.113 402.839 304.957 396.694 304.957 389.113C304.957 381.531 311.113 375.386 318.707 375.386C326.301 375.386 332.457 381.531 332.457 389.113Z" fill="url(#paint3_linear_140_1975)"/>
<defs>
<linearGradient id="paint0_linear_140_1975" x1="424" y1="0" x2="424" y2="848" gradientUnits="userSpaceOnUse">
<stop stop-color="#249CE4"/>
<stop offset="1" stop-color="#2C51E2"/>
</linearGradient>
<linearGradient id="paint1_linear_140_1975" x1="424" y1="127" x2="424" y2="720" gradientUnits="userSpaceOnUse">
<stop stop-color="white"/>
<stop offset="1" stop-color="white" stop-opacity="0.8"/>
</linearGradient>
<linearGradient id="paint2_linear_140_1975" x1="424" y1="127" x2="424" y2="720" gradientUnits="userSpaceOnUse">
<stop stop-color="white"/>
<stop offset="1" stop-color="white" stop-opacity="0.8"/>
</linearGradient>
<linearGradient id="paint3_linear_140_1975" x1="424" y1="127" x2="424" y2="720" gradientUnits="userSpaceOnUse">
<stop stop-color="white"/>
<stop offset="1" stop-color="white" stop-opacity="0.8"/>
</linearGradient>
</defs>
</svg>
