<svg width="3071" height="1048" viewBox="0 0 3071 1048" fill="none" xmlns="http://www.w3.org/2000/svg">
<path d="M1372.9 701V324.344H1641.03V395.1H1448.98V492.456H1611.24V562.68H1448.98V701H1372.9ZM1672.69 701V420.636H1747.17V701H1672.69ZM1709.93 392.44C1696.1 392.44 1684.93 388.361 1676.41 380.204C1667.9 371.692 1663.65 360.875 1663.65 347.752C1663.65 333.92 1668.08 322.748 1676.95 314.236C1685.81 305.724 1696.98 301.468 1710.46 301.468C1722.88 301.468 1733.52 305.724 1742.38 314.236C1751.6 322.393 1756.21 333.388 1756.21 347.22C1756.21 360.697 1751.78 371.692 1742.91 380.204C1734.4 388.361 1723.41 392.44 1709.93 392.44ZM1769.5 701L1867.39 557.892L1774.29 420.636H1861.01L1916.33 508.948L1970.6 420.636H2054.65L1961.02 559.488L2061.04 701H1974.32L1913.14 608.964L1852.49 701H1769.5ZM2205.64 704.724C2176.2 704.724 2151.2 698.872 2130.63 687.168C2110.06 675.464 2094.27 658.972 2083.28 637.692C2072.28 616.057 2066.79 590.876 2066.79 562.148C2066.79 533.065 2072.46 507.707 2083.81 486.072C2095.16 464.083 2111.12 446.881 2131.69 434.468C2152.62 422.055 2177.26 415.848 2205.64 415.848C2226.92 415.848 2245.54 419.395 2261.5 426.488C2277.81 433.581 2291.47 443.512 2302.46 456.28C2313.81 469.048 2322.15 483.944 2327.47 500.968C2333.14 517.637 2335.8 535.725 2335.45 555.232C2335.45 560.197 2335.27 564.985 2334.91 569.596C2334.56 574.207 2333.85 578.817 2332.79 583.428H2140.73C2141.8 594.068 2144.81 603.821 2149.78 612.688C2154.74 621.555 2161.66 628.648 2170.53 633.968C2179.75 638.933 2191.1 641.416 2204.57 641.416C2213.44 641.416 2221.6 640.529 2229.05 638.756C2236.49 636.628 2242.88 633.436 2248.2 629.18C2253.52 624.924 2257.24 619.959 2259.37 614.284H2332.79C2328.18 635.209 2319.49 652.411 2306.72 665.888C2294.3 679.365 2279.23 689.296 2261.5 695.68C2243.76 701.709 2225.14 704.724 2205.64 704.724ZM2142.33 531.292H2264.16C2263.8 521.716 2261.32 512.849 2256.71 504.692C2252.45 496.18 2245.89 489.441 2237.03 484.476C2228.51 479.156 2217.52 476.496 2204.04 476.496C2190.56 476.496 2179.22 479.156 2169.99 484.476C2161.13 489.796 2154.39 496.712 2149.78 505.224C2145.52 513.381 2143.04 522.071 2142.33 531.292ZM2372.79 701V420.636H2439.82L2444.61 454.152C2451.7 443.512 2459.68 435.532 2468.55 430.212C2477.42 424.537 2486.64 420.813 2496.21 419.04C2505.79 416.912 2515.54 415.848 2525.47 415.848C2530.08 415.848 2534.34 416.025 2538.24 416.38C2542.14 416.38 2544.98 416.38 2546.75 416.38V488.2H2529.2C2512.53 488.2 2497.99 491.037 2485.57 496.712C2473.16 502.387 2463.58 511.253 2456.85 523.312C2450.46 535.371 2447.27 550.799 2447.27 569.596V701H2372.79ZM2696.68 704.724C2668.3 704.724 2643.48 699.049 2622.2 687.7C2600.92 675.996 2584.43 659.504 2572.72 638.224C2561.02 616.589 2555.17 591.053 2555.17 561.616C2555.17 531.469 2561.02 505.579 2572.72 483.944C2584.78 461.955 2601.45 445.108 2622.73 433.404C2644.01 421.7 2668.48 415.848 2696.15 415.848C2724.52 415.848 2749.17 421.877 2770.09 433.936C2791.02 445.995 2807.33 462.841 2819.04 484.476C2830.74 506.111 2836.59 532.001 2836.59 562.148C2836.59 591.585 2830.74 617.121 2819.04 638.756C2807.69 660.036 2791.55 676.351 2770.63 687.7C2750.06 699.049 2725.41 704.724 2696.68 704.724ZM2695.61 636.628C2711.93 636.628 2725.05 633.081 2734.98 625.988C2744.91 618.895 2752.01 609.673 2756.26 598.324C2760.87 586.62 2763.18 574.384 2763.18 561.616C2763.18 548.848 2760.87 536.612 2756.26 524.908C2752.01 513.204 2744.91 503.628 2734.98 496.18C2725.41 488.377 2712.28 484.476 2695.61 484.476C2679.65 484.476 2666.71 488.377 2656.78 496.18C2646.85 503.628 2639.58 513.204 2634.97 524.908C2630.71 536.612 2628.58 548.848 2628.58 561.616C2628.58 574.739 2630.71 586.975 2634.97 598.324C2639.58 609.673 2646.85 618.895 2656.78 625.988C2666.71 633.081 2679.65 636.628 2695.61 636.628Z" fill="#151B26"/>
<rect x="133" y="100" width="848" height="848" rx="120" fill="url(#paint0_linear_140_1974)"/>
<path d="M381 259.944C381 241.75 395.775 227 414 227H711C723.15 227 733 236.833 733 248.963V325.833C733 337.963 723.15 347.796 711 347.796H524C511.85 347.796 502 357.629 502 369.759V437.439C502 443.179 503.588 448.807 506.59 453.703C512.261 462.953 522.343 468.593 533.206 468.593H683.268C702.367 468.593 712.394 491.221 699.547 505.329L629.547 582.2C625.377 586.779 619.466 589.389 613.268 589.389H532.087C517.197 589.389 506.608 603.846 511.122 618.011L569.878 769.415C576.023 788.696 552.931 778.669 545.521 759.836C540.012 745.835 530.983 733.614 519.437 724.702C516.26 722.249 511.838 724.394 511.392 728.379L506.974 767.845C506.586 771.349 503.413 773.857 499.953 773.451C496.456 773.063 493.944 769.927 494.338 766.442L500.666 709.882C500.844 708.187 500.265 706.435 499.07 705.114C497.829 703.743 496.042 702.956 494.166 702.956H456.354C454.472 702.956 452.691 703.743 451.445 705.114C450.255 706.429 449.677 708.212 449.861 709.99L456.182 766.442C456.577 769.927 454.065 773.063 450.567 773.457C447.082 773.876 443.934 771.337 443.546 767.851L439.128 728.383C438.682 724.4 434.261 722.254 431.084 724.706C417.503 735.186 407.404 750.245 402.42 767.397C398.072 782.361 381 791.655 381 776.074V598.486C381 592.661 383.318 587.075 387.444 582.956L466.632 503.901C473.403 497.141 474.652 486.631 469.653 478.478C465.888 472.337 459.195 468.593 451.983 468.593H403C390.85 468.593 381 458.759 381 446.63V259.944Z" fill="url(#paint1_linear_140_1974)"/>
<path d="M381 805.223C381 801.222 384.19 797.949 388.195 797.838L569.666 792.805C574.779 792.663 579 796.762 579 801.868C579 811.882 570.868 820 560.837 820H395.802C387.627 820 381 813.384 381 805.223Z" fill="url(#paint2_linear_140_1974)"/>
<path d="M465.457 489.113C465.457 496.694 459.301 502.839 451.707 502.839C444.113 502.839 437.957 496.694 437.957 489.113C437.957 481.531 444.113 475.386 451.707 475.386C459.301 475.386 465.457 481.531 465.457 489.113Z" fill="url(#paint3_linear_140_1974)"/>
<defs>
<linearGradient id="paint0_linear_140_1974" x1="557" y1="100" x2="557" y2="948" gradientUnits="userSpaceOnUse">
<stop stop-color="#249CE4"/>
<stop offset="1" stop-color="#2C51E2"/>
</linearGradient>
<linearGradient id="paint1_linear_140_1974" x1="557" y1="227" x2="557" y2="820" gradientUnits="userSpaceOnUse">
<stop stop-color="white"/>
<stop offset="1" stop-color="white" stop-opacity="0.8"/>
</linearGradient>
<linearGradient id="paint2_linear_140_1974" x1="557" y1="227" x2="557" y2="820" gradientUnits="userSpaceOnUse">
<stop stop-color="white"/>
<stop offset="1" stop-color="white" stop-opacity="0.8"/>
</linearGradient>
<linearGradient id="paint3_linear_140_1974" x1="557" y1="227" x2="557" y2="820" gradientUnits="userSpaceOnUse">
<stop stop-color="white"/>
<stop offset="1" stop-color="white" stop-opacity="0.8"/>
</linearGradient>
</defs>
</svg>
