<svg width="3071" height="1048" viewBox="0 0 3071 1048" fill="none" xmlns="http://www.w3.org/2000/svg">
<path d="M1087.9 701V324.344H1356.03V395.1H1163.98V492.456H1326.24V562.68H1163.98V701H1087.9ZM1387.69 701V420.636H1462.17V701H1387.69ZM1424.93 392.44C1411.1 392.44 1399.93 388.361 1391.41 380.204C1382.9 371.692 1378.65 360.875 1378.65 347.752C1378.65 333.92 1383.08 322.748 1391.95 314.236C1400.81 305.724 1411.98 301.468 1425.46 301.468C1437.88 301.468 1448.52 305.724 1457.38 314.236C1466.6 322.393 1471.21 333.388 1471.21 347.22C1471.21 360.697 1466.78 371.692 1457.91 380.204C1449.4 388.361 1438.41 392.44 1424.93 392.44ZM1484.5 701L1582.39 557.892L1489.29 420.636H1576.01L1631.33 508.948L1685.6 420.636H1769.65L1676.02 559.488L1776.04 701H1689.32L1628.14 608.964L1567.49 701H1484.5ZM1920.64 704.724C1891.2 704.724 1866.2 698.872 1845.63 687.168C1825.06 675.464 1809.27 658.972 1798.28 637.692C1787.28 616.057 1781.79 590.876 1781.79 562.148C1781.79 533.065 1787.46 507.707 1798.81 486.072C1810.16 464.083 1826.12 446.881 1846.69 434.468C1867.62 422.055 1892.26 415.848 1920.64 415.848C1941.92 415.848 1960.54 419.395 1976.5 426.488C1992.81 433.581 2006.47 443.512 2017.46 456.28C2028.81 469.048 2037.15 483.944 2042.47 500.968C2048.14 517.637 2050.8 535.725 2050.45 555.232C2050.45 560.197 2050.27 564.985 2049.91 569.596C2049.56 574.207 2048.85 578.817 2047.79 583.428H1855.73C1856.8 594.068 1859.81 603.821 1864.78 612.688C1869.74 621.555 1876.66 628.648 1885.53 633.968C1894.75 638.933 1906.1 641.416 1919.57 641.416C1928.44 641.416 1936.6 640.529 1944.05 638.756C1951.49 636.628 1957.88 633.436 1963.2 629.18C1968.52 624.924 1972.24 619.959 1974.37 614.284H2047.79C2043.18 635.209 2034.49 652.411 2021.72 665.888C2009.3 679.365 1994.23 689.296 1976.5 695.68C1958.76 701.709 1940.14 704.724 1920.64 704.724ZM1857.33 531.292H1979.16C1978.8 521.716 1976.32 512.849 1971.71 504.692C1967.45 496.18 1960.89 489.441 1952.03 484.476C1943.51 479.156 1932.52 476.496 1919.04 476.496C1905.56 476.496 1894.22 479.156 1884.99 484.476C1876.13 489.796 1869.39 496.712 1864.78 505.224C1860.52 513.381 1858.04 522.071 1857.33 531.292ZM2087.79 701V420.636H2154.82L2159.61 454.152C2166.7 443.512 2174.68 435.532 2183.55 430.212C2192.42 424.537 2201.64 420.813 2211.21 419.04C2220.79 416.912 2230.54 415.848 2240.47 415.848C2245.08 415.848 2249.34 416.025 2253.24 416.38C2257.14 416.38 2259.98 416.38 2261.75 416.38V488.2H2244.2C2227.53 488.2 2212.99 491.037 2200.57 496.712C2188.16 502.387 2178.58 511.253 2171.85 523.312C2165.46 535.371 2162.27 550.799 2162.27 569.596V701H2087.79ZM2411.68 704.724C2383.3 704.724 2358.48 699.049 2337.2 687.7C2315.92 675.996 2299.43 659.504 2287.72 638.224C2276.02 616.589 2270.17 591.053 2270.17 561.616C2270.17 531.469 2276.02 505.579 2287.72 483.944C2299.78 461.955 2316.45 445.108 2337.73 433.404C2359.01 421.7 2383.48 415.848 2411.15 415.848C2439.52 415.848 2464.17 421.877 2485.09 433.936C2506.02 445.995 2522.33 462.841 2534.04 484.476C2545.74 506.111 2551.59 532.001 2551.59 562.148C2551.59 591.585 2545.74 617.121 2534.04 638.756C2522.69 660.036 2506.55 676.351 2485.63 687.7C2465.06 699.049 2440.41 704.724 2411.68 704.724ZM2410.61 636.628C2426.93 636.628 2440.05 633.081 2449.98 625.988C2459.91 618.895 2467.01 609.673 2471.26 598.324C2475.87 586.62 2478.18 574.384 2478.18 561.616C2478.18 548.848 2475.87 536.612 2471.26 524.908C2467.01 513.204 2459.91 503.628 2449.98 496.18C2440.41 488.377 2427.28 484.476 2410.61 484.476C2394.65 484.476 2381.71 488.377 2371.78 496.18C2361.85 503.628 2354.58 513.204 2349.97 524.908C2345.71 536.612 2343.58 548.848 2343.58 561.616C2343.58 574.739 2345.71 586.975 2349.97 598.324C2354.58 609.673 2361.85 618.895 2371.78 625.988C2381.71 633.081 2394.65 636.628 2410.61 636.628Z" fill="#151B26"/>
<rect x="133" y="100" width="848" height="848" rx="120" fill="url(#paint0_linear_140_1974)"/>
<path d="M381 259.944C381 241.75 395.775 227 414 227H711C723.15 227 733 236.833 733 248.963V325.833C733 337.963 723.15 347.796 711 347.796H524C511.85 347.796 502 357.629 502 369.759V437.439C502 443.179 503.588 448.807 506.59 453.703C512.261 462.953 522.343 468.593 533.206 468.593H683.268C702.367 468.593 712.394 491.221 699.547 505.329L629.547 582.2C625.377 586.779 619.466 589.389 613.268 589.389H532.087C517.197 589.389 506.608 603.846 511.122 618.011L569.878 769.415C576.023 788.696 552.931 778.669 545.521 759.836C540.012 745.835 530.983 733.614 519.437 724.702C516.26 722.249 511.838 724.394 511.392 728.379L506.974 767.845C506.586 771.349 503.413 773.857 499.953 773.451C496.456 773.063 493.944 769.927 494.338 766.442L500.666 709.882C500.844 708.187 500.265 706.435 499.07 705.114C497.829 703.743 496.042 702.956 494.166 702.956H456.354C454.472 702.956 452.691 703.743 451.445 705.114C450.255 706.429 449.677 708.212 449.861 709.99L456.182 766.442C456.577 769.927 454.065 773.063 450.567 773.457C447.082 773.876 443.934 771.337 443.546 767.851L439.128 728.383C438.682 724.4 434.261 722.254 431.084 724.706C417.503 735.186 407.404 750.245 402.42 767.397C398.072 782.361 381 791.655 381 776.074V598.486C381 592.661 383.318 587.075 387.444 582.956L466.632 503.901C473.403 497.141 474.652 486.631 469.653 478.478C465.888 472.337 459.195 468.593 451.983 468.593H403C390.85 468.593 381 458.759 381 446.63V259.944Z" fill="url(#paint1_linear_140_1974)"/>
<path d="M381 805.223C381 801.222 384.19 797.949 388.195 797.838L569.666 792.805C574.779 792.663 579 796.762 579 801.868C579 811.882 570.868 820 560.837 820H395.802C387.627 820 381 813.384 381 805.223Z" fill="url(#paint2_linear_140_1974)"/>
<path d="M465.457 489.113C465.457 496.694 459.301 502.839 451.707 502.839C444.113 502.839 437.957 496.694 437.957 489.113C437.957 481.531 444.113 475.386 451.707 475.386C459.301 475.386 465.457 481.531 465.457 489.113Z" fill="url(#paint3_linear_140_1974)"/>
<defs>
<linearGradient id="paint0_linear_140_1974" x1="557" y1="100" x2="557" y2="948" gradientUnits="userSpaceOnUse">
<stop stop-color="#249CE4"/>
<stop offset="1" stop-color="#2C51E2"/>
</linearGradient>
<linearGradient id="paint1_linear_140_1974" x1="557" y1="227" x2="557" y2="820" gradientUnits="userSpaceOnUse">
<stop stop-color="white"/>
<stop offset="1" stop-color="white" stop-opacity="0.8"/>
</linearGradient>
<linearGradient id="paint2_linear_140_1974" x1="557" y1="227" x2="557" y2="820" gradientUnits="userSpaceOnUse">
<stop stop-color="white"/>
<stop offset="1" stop-color="white" stop-opacity="0.8"/>
</linearGradient>
<linearGradient id="paint3_linear_140_1974" x1="557" y1="227" x2="557" y2="820" gradientUnits="userSpaceOnUse">
<stop stop-color="white"/>
<stop offset="1" stop-color="white" stop-opacity="0.8"/>
</linearGradient>
</defs>
</svg>
